<svg width="800" height="900" viewBox="0 0 800 900" fill="none" xmlns="http://www.w3.org/2000/svg">
  <defs>
    <linearGradient id="groomBg" x1="0" y1="0" x2="800" y2="900" gradientUnits="userSpaceOnUse">
      <stop stop-color="#F7E9D4"/>
      <stop offset="1" stop-color="#D9AE67"/>
    </linearGradient>
  </defs>
  <rect width="800" height="900" rx="36" fill="url(#groomBg)"/>
  <circle cx="400" cy="288" r="128" fill="#F1C89A"/>
  <path d="M295 260C295 172 342 122 404 122C472 122 514 180 514 260V285H295V260Z" fill="#1D2430"/>
  <circle cx="362" cy="284" r="11" fill="#1E2430"/>
  <circle cx="438" cy="284" r="11" fill="#1E2430"/>
  <path d="M368 334C385 350 415 350 432 334" stroke="#A6644F" stroke-width="8" stroke-linecap="round"/>
  <path d="M330 390C300 440 283 492 283 552V700C283 744 318 780 362 780H438C482 780 517 744 517 700V552C517 492 500 440 470 390L440 422H360L330 390Z" fill="#1F3349"/>
  <path d="M315 430L246 570L286 592L350 468L315 430Z" fill="#152A3A"/>
  <path d="M485 430L554 570L514 592L450 468L485 430Z" fill="#152A3A"/>
  <path d="M342 460H458L480 695H320L342 460Z" fill="#2A4663"/>
  <path d="M188 646C250 610 305 594 362 600" stroke="#E1B76D" stroke-width="18" stroke-linecap="round" opacity="0.75"/>
  <path d="M612 646C550 610 495 594 438 600" stroke="#E1B76D" stroke-width="18" stroke-linecap="round" opacity="0.75"/>
  <circle cx="180" cy="180" r="28" fill="#FFF4E3" opacity="0.8"/>
  <circle cx="620" cy="180" r="28" fill="#FFF4E3" opacity="0.8"/>
  <circle cx="122" cy="712" r="20" fill="#F3D59E" opacity="0.9"/>
  <circle cx="678" cy="712" r="20" fill="#F3D59E" opacity="0.9"/>
</svg>
